inDegrees=no
num_controls=7
num_derivatives=13
num_iterations=125
num_multipliers=7
num_parameters=0
num_slacks=7
num_states=26
objective=0.477020
objective_accelerations=0.043870
objective_balance=0.003625
objective_effort=0.040256
objective_height=0.383601
objective_ligament=0.005668
solver_duration=1741.053953
status=Solve_Succeeded
success=true
DataType=double
version=3
OpenSimVersion=4.5
endheader
time	/jointset/ground_pelvis/pelvis_tilt/value	/jointset/ground_pelvis/pelvis_tx/value	/jointset/ground_pelvis/pelvis_ty/value	/jointset/hip_l/hip_flexion_l/value	/jointset/hip_l/hip_adduction_l/value	/jointset/hip_l/hip_rotation_l/value	/jointset/back/lumbar_extension/value	/jointset/patellofemoral_l/patellar_flexion_l/value	/jointset/knee_l/knee_flexion_l/value	/jointset/knee_l/knee_adduction_l/value	/jointset/knee_l/knee_rotation_l/value	/jointset/ankle_l/ankle_angle_l/value	/jointset/subtalar_l/subtalar_angle_l/value	/jointset/ground_pelvis/pelvis_tilt/speed	/jointset/ground_pelvis/pelvis_tx/speed	/jointset/ground_pelvis/pelvis_ty/speed	/jointset/hip_l/hip_flexion_l/speed	/jointset/hip_l/hip_adduction_l/speed	/jointset/hip_l/hip_rotation_l/speed	/jointset/back/lumbar_extension/speed	/jointset/patellofemoral_l/patellar_flexion_l/speed	/jointset/knee_l/knee_flexion_l/speed	/jointset/knee_l/knee_adduction_l/speed	/jointset/knee_l/knee_rotation_l/speed	/jointset/ankle_l/ankle_angle_l/speed	/jointset/subtalar_l/subtalar_angle_l/speed	/forceset/tau_hip_flexion_l	/forceset/tau_hip_adduction_l	/forceset/tau_hip_rotation_l	/forceset/tau_knee_flexion_l	/forceset/tau_ankle_angle_l	/forceset/tau_subtalar_angle_l	/forceset/tau_lumbar_extension	lambda_cid13_p0	lambda_cid13_p1	lambda_cid13_p2	lambda_cid13_p3	lambda_cid13_p4	lambda_cid13_p5	lambda_cid14_p0	/jointset/ground_pelvis/pelvis_tilt/accel	/jointset/ground_pelvis/pelvis_tx/accel	/jointset/ground_pelvis/pelvis_ty/accel	/jointset/hip_l/hip_flexion_l/accel	/jointset/hip_l/hip_adduction_l/accel	/jointset/hip_l/hip_rotation_l/accel	/jointset/back/lumbar_extension/accel	/jointset/patellofemoral_l/patellar_flexion_l/accel	/jointset/knee_l/knee_flexion_l/accel	/jointset/knee_l/knee_adduction_l/accel	/jointset/knee_l/knee_rotation_l/accel	/jointset/ankle_l/ankle_angle_l/accel	/jointset/subtalar_l/subtalar_angle_l/accel	gamma_cid13_p0	gamma_cid13_p1	gamma_cid13_p2	gamma_cid13_p3	gamma_cid13_p4	gamma_cid13_p5	gamma_cid14_p0
0.5	-0.09312725174747308	-0.04122837478937865	0.807521527340632	0.9262921472061058	-0.3301117245176076	-0.07876875870802125	-0.7910240785487943	0.9186860071364843	0.9186860071361964	-0.1049171486890038	-0.1744989594280401	0.1493087901976016	0.01292667808683943	-0.1235245589186955	-0.1573832544499972	-0.412109692888364	1.582766492728354	-0.0309155504046508	0.5635418633474248	-0.8378100161394958	1.770218607722476	1.770218607722453	0.1450029579005885	0.0001680547009363056	0.4314534742769059	0.113084202526138	-0.2707167500916652	0.02115025762540061	-0.004552119297299389	-0.2472436345866173	0.08435125793234921	0.04579565030245276	0.3274717992586715	-17.01578064584128	-18.5757121890951	4.410143249064281	-8.951141159663592	-701.9139110768884	-75.44870267155065	-9.862429052878293	0.2786598727595118	0.6644819821010566	-0.1865294675388346	-1.509793003478681	0.3308407769003545	-0.5086109079361095	1.897800317397426	-1.431753785995948	-1.431753785995881	-0.2217380630530347	-0.005147320791921045	-0.270496825933888	0.3359736746284264	-2.48870673338639e-07	-1.715438739114765e-07	1.469308080620576e-06	1.35147346348979e-07	-2.743629217046982e-07	-1.038994920150876e-07	-2.125506001800026e-07
0.51	-0.09434836460443394	-0.04276895685611372	0.8033920264824321	0.9420419170320663	-0.3304051633668834	-0.07315793976046271	-0.7993063882796831	0.936313841346331	0.9363138413462901	-0.1034807199883011	-0.1744974467076552	0.1536087577345188	0.01407303852579784	-0.1206772033466823	-0.1507318552175654	-0.4136958063768451	1.56696638166872	-0.02778078172380965	0.5585575073716841	-0.8185618671014117	1.755095936512406	1.755095936512371	0.1422773177778683	0.0001338675675749125	0.4284697833448949	0.1161594952363762	-0.2769694489334893	0.02157716748146086	-0.004696920120292757	-0.2507749312253419	0.08319967429498364	0.04581435523123693	0.333753290555275	-17.64833213517134	-18.41364074467987	4.316409398173213	-8.69839727432314	-706.4651149230826	-75.22233388524813	-9.145268202996261	0.2908716956274937	0.6656915630626771	-0.1305044939555634	-1.648314220477639	0.3033136627088265	-0.50320461356817	1.951831637440183	-1.590326852049182	-1.590326852050981	-0.2987939132972348	-0.002361296380702241	-0.3228416282095358	0.2889018178267922	-2.391359317761472e-07	-1.599416368554468e-07	1.432893624785008e-06	1.317074963253458e-07	-2.605926480825606e-07	-7.411063821995354e-08	-2.073258449335867e-07
0.52	-0.09554038424643062	-0.04424298039667453	0.7992494940484569	0.9576270469347778	-0.3306675507795448	-0.06759893570689578	-0.8073935146321054	0.95378288823137	0.9537828882315739	-0.1020717110741072	-0.1744962372359587	0.157876781081841	0.0152492708415797	-0.117705915926471	-0.1440715492151482	-0.4147160080434453	1.549838508078211	-0.02470526308165466	0.5531788845489387	-0.7987733404462873	1.73846114276087	1.738461142760824	0.1395190005985189	0.0001074049633161463	0.4250646363578913	0.1190585778908257	-0.2832221477753161	0.0220040773375224	-0.004841720943278507	-0.2543062278640675	0.08204809065761788	0.04583306016002241	0.340034781851876	-18.28292858156551	-18.25133628712407	4.222782564072005	-8.48869574496724	-711.0786898290997	-75.04712581193226	-8.430088477742908	0.3034462423990492	0.6662633360982314	-0.07334710316264839	-1.775345509653703	0.3189907691631101	-0.5874642773370458	2.005875840805413	-1.734178294289053	-1.734178294288976	-0.2282734743788999	-0.003602414971410989	-0.3547880369323536	0.3007316634706856	-2.328730024020949e-07	-1.850999281817543e-07	1.39081230124073e-06	1.238719288277541e-07	-2.510748122229776e-07	-5.613889686263475e-08	-2.05997354105046e-07
0.53	-0.09670211475476377	-0.04565041019623003	0.795099606373123	0.973034392587806	-0.3308995037079293	-0.06209577841440898	-0.8152802272081118	0.9710781722470695	0.9710781722470341	-0.100690350892306	-0.1744953946023324	0.1621087128647235	0.01645359172389335	-0.1146233085523877	-0.1374179414246408	-0.4151652756605801	1.531419763076298	-0.02169659338959525	0.547390991922577	-0.7784957839324101	1.72035505536442	1.720355055364388	0.1367487803125053	6.146482389101748e-05	0.4212578155478518	0.1217751941058604	-0.2891439391706151	0.02226714571871698	-0.004943445620871053	-0.2580336843151417	0.08104814226184154	0.04572433928710835	0.3460027667731075	-18.86990678782186	-18.03420494385037	4.111477269445223	-8.2289775937206	-715.5837346764622	-74.8171272368471	-7.719918935583529	0.3131780280312301	0.6644038426552759	-0.01632810165309604	-1.906796175839597	0.2899341923211188	-0.5838779512789137	2.049704179969281	-1.88487365464454	-1.884873654642369	-0.3020483967081196	-0.004767375644504374	-0.4032161246006138	0.2524371614437004	-2.235984661071501e-07	-1.839863411222153e-07	1.349075465464876e-06	1.188260534935706e-07	-2.387759135526792e-07	-3.145706525935449e-08	-2.013269857253226e-07
0.54	-0.09783251718072961	-0.04699140504945458	0.790948103719485	0.9882512193547406	-0.3311017441147751	-0.0566523852873829	-0.8229619624943211	0.9881851854503406	0.9881851854500638	-0.09933682333156417	-0.1744949468825429	0.1663006590351936	0.01768414088054212	-0.1114402994535867	-0.130784559948958	-0.4150390037042885	1.511734730859207	-0.01876275877378523	0.5412260514564884	-0.7577778824869266	1.700806980275108	1.700806980275091	0.1339524763866709	2.842219580903651e-05	0.4170675138753779	0.1243042327578493	-0.2950657305659162	0.02253021409991442	-0.005045170298470747	-0.2617611407662164	0.08004819386606565	0.04561561841419792	0.3519707516943367	-19.45879048560423	-17.81921506839936	4.003341758533452	-8.015747563901073	-720.1446474947542	-74.64042695865362	-7.03650258520643	0.3235265873424668	0.6622180731333774	0.04176081152266301	-2.028602952689224	0.3040237539132215	-0.6628738452824331	2.093944827126666	-2.022575832861421	-2.022575832861412	-0.2334902023430661	-0.001022912702793102	-0.4314842094191723	0.2632161508615329	-2.109919391763243e-07	-1.538059949974839e-07	1.307719765092385e-06	1.1686664608486e-07	-2.234000943258445e-07	6.486959777555818e-10	-1.929592209059928e-07
0.55	-0.09893061687354829	-0.0482662254563041	0.7868007425496911	1.003265023702755	-0.3312749890892316	-0.05127255373300924	-0.8304344492440047	1.005089687244045	1.00508968724376	-0.09801123883831804	-0.1744947902116383	0.1704488704262697	0.01893909145257293	-0.1081637248394434	-0.1241883908568541	-0.4143365388635958	1.490824035632022	-0.01590096738728934	0.5346743277782475	-0.7366608992320186	1.679865637506132	1.679865637506158	0.1311646778878285	-1.775099516233947e-06	0.4125163241525374	0.1266522431754538	-0.300749609896919	0.02269018816856332	-0.005105514331726956	-0.2655008878630901	0.07893442066781971	0.04540164917346071	0.3576718211420946	-20.08314472553271	-17.5490457606723	3.882684899869069	-7.684239513205435	-724.5600033722352	-74.39868119935471	-6.387968291233163	0.3320907521789586	0.657009071602657	0.0989500263536187	-2.15264365823019	0.2748727740553731	-0.6613822237119449	2.12936030724836	-2.16403696390783	-2.16403696390128	-0.3013974146090087	-0.004465430794473582	-0.4757009841564229	0.215418837068755	-1.960489586576293e-07	-1.087725587282868e-07	1.263021702848451e-06	1.161383284086084e-07	-2.063377100152331e-07	3.528249398941997e-08	-1.821092967279792e-07
